<?xml version="1.0" standalone="no"?>
<!DOCTYPE svg PUBLIC "-//W3C//DTD SVG 20010904//EN"
 "http://www.w3.org/TR/2001/REC-SVG-20010904/DTD/svg10.dtd">
<svg version="1.0" xmlns="http://www.w3.org/2000/svg"
 width="600.000000pt" height="620.000000pt" viewBox="0 0 600.000000 620.000000"
 preserveAspectRatio="xMidYMid meet">
<g transform="translate(0.000000,620.000000) scale(0.100000,-0.100000)"
fill="#000000" stroke="none">
<path d="M1993 4816 l-28 -24 -2 -1957 c-2 -1468 0 -1962 9 -1978 23 -45 32
-46 274 -47 219 0 233 1 258 21 l26 20 0 639 c0 351 3 645 6 654 5 13 9 12 26
-9 24 -30 61 -32 88 -5 11 11 20 17 20 13 0 -5 4 -3 8 2 4 6 27 21 52 34 25
14 47 27 50 30 3 4 22 15 43 26 21 11 47 28 58 38 10 10 19 16 19 13 0 -3 133
73 180 104 54 36 181 112 210 126 19 10 37 21 40 25 3 4 24 17 48 29 23 12 45
26 48 31 3 5 10 7 15 4 5 -4 12 1 15 9 3 9 10 13 15 10 5 -3 9 -1 9 4 0 5 41
31 90 57 50 26 90 52 90 57 0 5 4 7 9 4 5 -3 19 5 32 18 13 12 38 29 54 38 64
32 130 71 133 80 2 4 9 8 16 8 7 0 23 10 36 23 14 12 25 20 26 17 3 -9 84 41
84 51 0 6 4 8 8 5 5 -3 33 10 63 29 30 18 90 55 133 81 44 26 92 60 107 75
l29 28 -1 251 -1 250 -36 35 c-20 20 -47 38 -59 41 -13 4 -23 10 -23 14 0 4
-8 10 -17 14 -10 3 -40 19 -68 36 -27 16 -72 42 -100 56 -27 15 -68 39 -90 54
-62 42 -116 76 -165 103 -150 85 -217 125 -320 188 -63 39 -135 82 -160 95
-68 38 -84 48 -92 59 -5 7 -8 7 -8 0 0 -6 -3 -5 -8 1 -7 12 -26 23 -193 118
-57 32 -131 76 -163 97 -33 22 -65 39 -73 39 -7 0 -13 5 -13 10 0 6 -4 10 -10
10 -5 0 -44 23 -86 50 -42 28 -85 50 -96 50 -10 0 -30 -11 -43 -24 -26 -26
-35 -18 -35 29 0 14 -11 32 -26 44 -25 20 -39 21 -255 21 -226 0 -228 0 -256
-24z m499 -1991 l3 -1975 -247 0 -248 0 0 1975 0 1975 245 0 245 0 2 -1975z
m127 1901 c9 -7 106 -66 216 -131 195 -115 554 -328 1198 -711 l317 -189 -2
-249 -3 -249 -100 -60 c-377 -225 -1607 -968 -1641 -992 l-21 -15 2 285 2 286
104 63 c57 35 333 201 614 370 280 169 511 309 513 310 3 3 -265 164 -833 501
-192 114 -360 214 -373 223 -23 17 -23 18 -25 295 -1 164 2 277 7 277 5 0 17
-6 25 -14z m-58 -556 c6 0 8 -4 4 -9 -3 -5 4 -12 15 -16 11 -3 20 -11 20 -16
0 -6 5 -7 10 -4 6 3 10 2 10 -3 0 -5 14 -15 30 -22 17 -7 30 -16 30 -21 0 -5
5 -9 10 -9 6 0 40 -18 76 -40 36 -22 69 -40 74 -40 4 0 18 -9 32 -19 13 -11
43 -29 66 -41 23 -12 42 -26 42 -32 0 -5 4 -7 9 -4 4 3 23 -6 42 -20 19 -15
48 -33 64 -40 17 -8 57 -32 90 -54 33 -22 71 -46 85 -53 14 -7 68 -38 122 -70
53 -31 101 -57 107 -57 6 0 11 -3 11 -8 0 -11 113 -77 128 -74 6 2 12 -1 12
-5 0 -4 20 -21 44 -37 44 -30 44 -30 22 -46 -11 -10 -59 -39 -106 -66 -47 -27
-88 -53 -92 -59 -5 -6 -8 -7 -8 0 0 6 -3 6 -8 -1 -6 -9 -34 -28 -107 -71 -11
-7 -29 -16 -41 -22 -11 -5 -28 -16 -36 -25 -9 -8 -22 -17 -29 -18 -7 -2 -18
-7 -24 -11 -24 -18 -128 -77 -136 -77 -5 0 -9 -4 -9 -9 0 -5 -8 -11 -17 -15
-21 -7 -86 -45 -93 -55 -3 -3 -12 -7 -20 -9 -8 -2 -16 -8 -18 -13 -2 -5 -9 -9
-15 -9 -7 0 -34 -16 -61 -35 -27 -19 -53 -35 -58 -35 -4 0 -29 -15 -55 -34
-27 -18 -58 -37 -70 -40 -13 -4 -23 -11 -23 -16 0 -4 -21 -18 -46 -30 -49 -23
-77 -44 -68 -53 3 -3 -4 -8 -15 -12 -11 -3 -22 -14 -24 -23 -3 -9 -5 316 -6
723 -1 653 3 837 17 773 2 -10 8 -18 13 -18z"/>
</g>
</svg>
